<mxfile host="app.diagrams.net" modified="2022-09-23T11:58:25.596Z" agent="5.0 (Macintosh; Intel Mac OS X 10_15_7) AppleWebKit/537.36 (KHTML, like Gecko) Chrome/105.0.0.0 Safari/537.36" etag="TtyAQ0DQVDbA-aPZ6cfi" version="20.3.6" type="github">
  <diagram id="1ShdSbuAKkxAY9wgsWDw" name="第 1 页">
    <mxGraphModel dx="2009" dy="794" grid="1" gridSize="10" guides="1" tooltips="1" connect="1" arrows="1" fold="1" page="1" pageScale="1" pageWidth="583" pageHeight="827" math="0" shadow="0">
      <root>
        <mxCell id="0" />
        <mxCell id="1" parent="0" />
        <mxCell id="UoU6pdlZqstgb5Sl8ZzC-1" value="" style="rounded=1;whiteSpace=wrap;html=1;" vertex="1" parent="1">
          <mxGeometry x="-320" y="210" width="260" height="190" as="geometry" />
        </mxCell>
        <mxCell id="UoU6pdlZqstgb5Sl8ZzC-2" value="&lt;font style=&quot;font-size: 18px;&quot;&gt;WeakMap&lt;/font&gt;" style="text;html=1;strokeColor=none;fillColor=none;align=center;verticalAlign=middle;whiteSpace=wrap;rounded=0;" vertex="1" parent="1">
          <mxGeometry x="-310" y="210" width="80" height="40" as="geometry" />
        </mxCell>
        <mxCell id="UoU6pdlZqstgb5Sl8ZzC-3" value="原始对象" style="text;html=1;strokeColor=none;fillColor=none;align=center;verticalAlign=middle;whiteSpace=wrap;rounded=0;fontSize=18;" vertex="1" parent="1">
          <mxGeometry x="-180" y="240" width="100" height="30" as="geometry" />
        </mxCell>
        <mxCell id="UoU6pdlZqstgb5Sl8ZzC-4" value="原始对象" style="text;html=1;strokeColor=none;fillColor=none;align=center;verticalAlign=middle;whiteSpace=wrap;rounded=0;fontSize=18;" vertex="1" parent="1">
          <mxGeometry x="-185" y="290" width="110" height="30" as="geometry" />
        </mxCell>
        <mxCell id="UoU6pdlZqstgb5Sl8ZzC-5" value="原始对象" style="text;html=1;strokeColor=none;fillColor=none;align=center;verticalAlign=middle;whiteSpace=wrap;rounded=0;fontSize=18;" vertex="1" parent="1">
          <mxGeometry x="-185" y="340" width="110" height="30" as="geometry" />
        </mxCell>
      </root>
    </mxGraphModel>
  </diagram>
</mxfile>
